<svg width="65" height="42" viewBox="0 0 65 42" fill="none" xmlns="http://www.w3.org/2000/svg">
<path d="M62.9032 19.0129V7.13464C62.9011 6.50968 62.6952 5.90244 62.3168 5.40505C61.9384 4.90765 61.4081 4.54722 60.8064 4.37844V0.0643311H58.7096V4.52626L56.6128 5.15529V3.20949H54.5161V5.78432L50.2754 7.05707C49.6814 7.23237 49.1604 7.59579 48.7908 8.09265C48.4212 8.58951 48.2229 9.19296 48.2258 9.81222V10.5482H41.9354V8.45142C41.9354 7.29505 40.995 6.35465 39.8387 6.35465H37.7419V4.25787H35.6451V6.35465H33.5484V2.1611H31.4516V6.35465H29.3548V4.25787H27.258V6.35465H25.1613C24.0049 6.35465 23.0645 7.29505 23.0645 8.45142V10.5482H16.7742V9.81222C16.7767 9.19277 16.5781 8.58923 16.2084 8.09224C15.8386 7.59525 15.3176 7.23164 14.7235 7.05602L10.4839 5.78432V3.20949H8.38709V5.15529L6.29032 4.52626V0.0643311H4.19354V4.37949C3.5918 4.54827 3.06151 4.9087 2.68312 5.40609C2.30472 5.90349 2.09887 6.51073 2.09677 7.13569V19.0129C1.50138 19.152 0.970397 19.488 0.589838 19.9666C0.20928 20.4451 0.00144355 21.0381 0 21.6495C0 22.1087 0.117419 22.5648 0.341774 22.9674L0.432983 23.132C6.89943 34.7701 19.1865 41.9998 32.5 41.9998C45.8134 41.9998 58.1005 34.7701 64.5669 23.132L64.6592 22.9663C64.862 22.5995 64.9771 22.1907 64.9954 21.7719C65.0136 21.3532 64.9346 20.9359 64.7644 20.5529C64.5943 20.1698 64.3377 19.8314 64.0147 19.5642C63.6918 19.297 63.3113 19.1083 62.9032 19.0129ZM50.3225 9.81222C50.3218 9.64427 50.3755 9.4806 50.4757 9.34581C50.5759 9.21102 50.7171 9.11238 50.8782 9.06472L59.8031 6.38715C59.9194 6.35568 60.0413 6.35102 60.1597 6.37354C60.278 6.39606 60.3897 6.44517 60.4863 6.51715C60.5829 6.58913 60.662 6.68211 60.7174 6.78908C60.7728 6.89604 60.8033 7.0142 60.8064 7.13464V18.9353H54.5161V12.645C54.5161 11.4886 53.5757 10.5482 52.4193 10.5482H50.3225V9.81222ZM52.4193 12.645V18.9353H41.9354V12.645H52.4193ZM25.1613 8.45142H39.8387V18.9353H25.1613V12.645V8.45142ZM23.0645 18.9353H12.5806V12.645H23.0645V18.9353ZM5.1979 6.38819L14.1207 9.06472C14.282 9.11219 14.4234 9.21075 14.5238 9.34556C14.6242 9.48037 14.6781 9.64414 14.6774 9.81222V10.5482H12.5806C11.4243 10.5482 10.4839 11.4886 10.4839 12.645V18.9353H4.19354V7.13464C4.19354 6.62932 4.70935 6.23932 5.1979 6.38819ZM2.26556 22.1129L2.17435 21.9483C2.12244 21.8544 2.09588 21.7486 2.0973 21.6413C2.09873 21.5341 2.12808 21.429 2.18247 21.3365C2.23687 21.244 2.31442 21.1673 2.40749 21.1139C2.50055 21.0605 2.60593 21.0323 2.71322 21.032H20.9677V22.0804C20.9677 22.6581 20.497 23.1288 19.9193 23.1288H13.629C11.895 23.1288 10.4839 24.5399 10.4839 26.274C10.4839 28.008 11.895 29.4191 13.629 29.4191H26.2097C26.7873 29.4191 27.258 29.8899 27.258 30.4675C27.258 31.0452 26.7873 31.5159 26.2097 31.5159H24.1129C22.3788 31.5159 20.9677 32.927 20.9677 34.6611C20.9677 36.3951 22.3788 37.8062 24.1129 37.8062C24.6905 37.8062 25.1613 38.2769 25.1613 38.8546V39.1031C20.357 38.0601 15.8302 36.0053 11.8822 33.0757C7.93432 30.1461 4.65597 26.4088 2.26556 22.1129ZM27.258 39.4889V38.8546C27.258 37.1206 25.8469 35.7094 24.1129 35.7094C23.5352 35.7094 23.0645 35.2387 23.0645 34.6611C23.0645 34.0834 23.5352 33.6127 24.1129 33.6127H26.2097C27.9437 33.6127 29.3548 32.2015 29.3548 30.4675C29.3548 28.7335 27.9437 27.3224 26.2097 27.3224H13.629C13.0514 27.3224 12.5806 26.8516 12.5806 26.274C12.5806 25.6963 13.0514 25.2256 13.629 25.2256H19.9193C21.6534 25.2256 23.0645 23.8145 23.0645 22.0804V21.032H37.7419V22.0804C37.7419 23.8145 39.153 25.2256 40.8871 25.2256H51.3709C51.9486 25.2256 52.4193 25.6963 52.4193 26.274C52.4193 26.8516 51.9486 27.3224 51.3709 27.3224H45.0806C43.3466 27.3224 41.9354 28.7335 41.9354 30.4675C41.9354 31.0452 41.4647 31.5159 40.8871 31.5159H36.6935C34.9595 31.5159 33.5484 32.927 33.5484 34.6611C33.5484 36.3951 34.9595 37.8062 36.6935 37.8062C37.2712 37.8062 37.7419 38.2769 37.7419 38.8546V39.4889C36.0215 39.7531 34.2717 39.903 32.5 39.903C30.7282 39.903 28.9784 39.7531 27.258 39.4889ZM62.8256 21.9483L62.7344 22.1129C60.344 26.4088 57.0656 30.1461 53.1177 33.0757C49.1698 36.0053 44.6429 38.0601 39.8387 39.1031V38.8546C39.8387 37.1206 38.4275 35.7094 36.6935 35.7094C36.1158 35.7094 35.6451 35.2387 35.6451 34.6611C35.6451 34.0834 36.1158 33.6127 36.6935 33.6127H40.8871C42.6211 33.6127 44.0322 32.2015 44.0322 30.4675C44.0322 29.8899 44.5029 29.4191 45.0806 29.4191H51.3709C53.1049 29.4191 54.5161 28.008 54.5161 26.274C54.5161 24.5399 53.1049 23.1288 51.3709 23.1288H40.8871C40.3094 23.1288 39.8387 22.6581 39.8387 22.0804V21.032H62.2867C62.394 21.0323 62.4994 21.0605 62.5924 21.1139C62.6855 21.1673 62.7631 21.244 62.8175 21.3365C62.8718 21.429 62.9012 21.5341 62.9026 21.6413C62.9041 21.7486 62.8775 21.8544 62.8256 21.9483Z" fill="white"/>
</svg>
