<svg width="65" height="67" viewBox="0 0 65 67" fill="none" xmlns="http://www.w3.org/2000/svg">
<path d="M64.2059 24.6824C58.5248 23.5344 52.7692 24.1784 47.0999 26.5975C46.8694 26.6958 46.6847 26.8779 46.5832 27.107C46.4817 27.3361 46.4709 27.5952 46.5529 27.832L47.1741 29.6257C44.6226 29.6265 42.5032 28.9582 40.2791 28.2541C39.6026 28.0399 38.903 27.8186 38.1841 27.6137C34.8391 26.6615 31.4679 27.4817 28.9344 29.8639L28.6223 30.1574C24.2951 31.1339 21.3077 31.0717 17.7359 29.8852L18.447 27.832C18.529 27.5952 18.5181 27.3361 18.4166 27.107C18.3151 26.8779 18.1305 26.6958 17.9 26.5975C12.2307 24.1786 6.47524 23.5342 0.793945 24.6824C0.569931 24.7276 0.368474 24.849 0.223758 25.0259C0.0790433 25.2028 -1.47721e-05 25.4243 2.07034e-09 25.6528V50.214C2.07034e-09 50.7609 0.443104 51.204 0.989956 51.204H9.64825C9.85406 51.204 10.0548 51.1398 10.2224 51.0205C10.3901 50.9011 10.5163 50.7324 10.5837 50.5379L10.9729 49.4139C14.2752 50.6561 16.8209 53.3048 18.2413 54.7837C18.3729 54.9211 18.5051 55.0581 18.6378 55.1944L28.8352 65.6435C29.4676 66.2913 30.3202 66.6513 31.236 66.6568L31.2578 66.6569C32.1789 66.6569 33.0421 66.3007 33.6907 65.6521C34.0847 65.259 34.3764 64.7753 34.5402 64.2434C36.0551 65.0899 38.0094 64.8703 39.2956 63.5844C39.9395 62.9417 40.3424 62.0968 40.4367 61.192C40.7925 61.2922 41.1605 61.3427 41.5303 61.3423C42.595 61.3423 43.5941 60.9298 44.343 60.1808C45.0614 59.4625 45.4469 58.5352 45.4998 57.5929C46.769 57.8558 48.143 57.4961 49.1264 56.5132C50.5777 55.0619 50.6689 52.7945 49.3967 51.1959C49.7456 51.1268 50.0871 51.0242 50.4164 50.8896C51.434 50.4743 52.3732 50.0023 53.2816 49.546C53.5107 49.4309 53.734 49.319 53.9561 49.2089L54.4163 50.5379C54.4837 50.7324 54.6099 50.9011 54.7776 51.0205C54.9453 51.1398 55.1459 51.204 55.3518 51.204H64.01C64.5569 51.204 65 50.7609 65 50.214V25.6528C65 25.4243 64.9209 25.2028 64.7761 25.0259C64.6314 24.849 64.4299 24.7277 64.2059 24.6824ZM8.94353 49.2241H1.98004V26.4754C6.72009 25.6686 11.5191 26.204 16.2696 28.069L8.94353 49.2241ZM47.7263 55.113C46.947 55.8919 45.6795 55.8919 44.9007 55.113L38.6714 48.7436C38.5806 48.6506 38.4724 48.5763 38.3529 48.5251C38.2334 48.4739 38.105 48.4467 37.975 48.4451C37.845 48.4435 37.716 48.4676 37.5953 48.5159C37.4746 48.5642 37.3646 48.6358 37.2716 48.7266C37.1786 48.8174 37.1043 48.9256 37.0531 49.0451C37.0019 49.1646 36.9747 49.293 36.9731 49.423C36.9716 49.5529 36.9956 49.682 37.0439 49.8027C37.0922 49.9233 37.1638 50.0333 37.2546 50.1264L42.9347 55.9468L42.9382 55.9501L42.9431 55.9555C43.722 56.7343 43.722 58.0018 42.9431 58.7807C42.1641 59.5597 40.8963 59.5596 40.1178 58.7811L33.6239 52.1471C33.5332 52.054 33.4249 51.9798 33.3054 51.9286C33.186 51.8773 33.0576 51.8502 32.9276 51.8486C32.7976 51.847 32.6685 51.871 32.5478 51.9193C32.4272 51.9676 32.3172 52.0392 32.2241 52.13C32.1311 52.2208 32.0569 52.3291 32.0056 52.4485C31.9544 52.568 31.9273 52.6964 31.9257 52.8264C31.9241 52.9564 31.9481 53.0854 31.9964 53.2061C32.0447 53.3268 32.1163 53.4368 32.2071 53.5298L37.8873 59.3503L37.8916 59.3541L37.8958 59.3587V59.3588C38.2709 59.7338 38.4774 60.2355 38.4774 60.7716C38.4774 61.3076 38.2709 61.8092 37.8961 62.184C37.1168 62.9629 35.8492 62.9628 35.0705 62.1843L28.0195 54.9933C27.9287 54.9002 27.8205 54.826 27.701 54.7747C27.5815 54.7235 27.4531 54.6963 27.3231 54.6948C27.1931 54.6932 27.0641 54.7172 26.9434 54.7655C26.8227 54.8138 26.7127 54.8854 26.6197 54.9762C26.5266 55.067 26.4524 55.1753 26.4012 55.2947C26.35 55.4142 26.3228 55.5426 26.3212 55.6726C26.3196 55.8026 26.3437 55.9316 26.392 56.0523C26.4402 56.173 26.5118 56.283 26.6026 56.376L32.2827 62.1963L32.287 62.2003L32.2912 62.2049C32.8553 62.7693 32.8555 63.6876 32.2913 64.252C32.0148 64.5285 31.6463 64.6777 31.2488 64.677C30.8663 64.6746 30.5124 64.5267 30.2527 64.2607L20.0553 53.8117C19.9372 53.6906 19.8086 53.5566 19.6699 53.4122C18.1286 51.8075 15.3645 48.9317 11.6217 47.5422L17.0884 31.7565C19.2218 32.4665 21.1923 32.8147 23.299 32.8147C24.1639 32.8147 25.0536 32.7537 25.985 32.6373L23.6941 34.7913C22.5983 35.8218 22.0191 37.1615 22.0191 38.6659V48.6129C22.0191 49.1598 22.4622 49.6029 23.0091 49.6029C27.2755 49.6029 31.6886 46.9044 31.6886 42.3884C31.6886 40.8295 32.9174 39.7153 33.8593 38.9453L44.6474 49.7268C45.1679 50.247 45.7649 50.6418 46.4047 50.9055L47.7113 52.2714C48.494 53.0904 48.5009 54.3386 47.7263 55.113ZM52.3926 47.7767C51.5182 48.2159 50.6142 48.6702 49.6681 49.0562C48.3823 49.5811 47.0289 49.3081 46.0466 48.3266L34.6229 36.9101C34.4441 36.7315 34.2039 36.6279 33.9513 36.6207C33.6988 36.6135 33.453 36.7031 33.2644 36.8713C33.1593 36.9648 33.0154 37.081 32.8489 37.2154C31.7513 38.1014 29.7082 39.7506 29.7082 42.3885C29.7082 44.2499 28.614 45.4572 27.6961 46.1423C26.6784 46.9019 25.3691 47.3999 23.9985 47.5638V38.666C23.9985 37.6946 24.3424 36.899 25.05 36.2337L30.2907 31.3062C32.3041 29.4129 34.9836 28.761 37.6418 29.5179C38.3331 29.7145 39.0185 29.9317 39.6814 30.1415C42.1419 30.9203 44.6813 31.722 47.8548 31.5914L53.3028 47.3231C52.9987 47.4729 52.6953 47.6241 52.3926 47.7767ZM63.02 49.2241H56.0565L48.7304 28.0691C53.4807 26.204 58.2795 25.6688 63.02 26.4755V49.2241ZM9.47058 22.9795H22.8725V25.7811C22.8725 26.328 23.3156 26.7711 23.8624 26.7711H41.1374C41.6843 26.7711 42.1274 26.328 42.1274 25.7811V22.9795H55.5293C56.0761 22.9795 56.5192 22.5364 56.5192 21.9896V17.8504C56.5214 16.2261 56.0481 14.6367 55.1578 13.2781C54.2675 11.9196 52.9991 10.8512 51.509 10.2049C52.4872 9.1208 53.0834 7.69222 53.0834 6.12783C53.0834 2.74891 50.3059 0 46.8919 0C43.4777 0 40.7001 2.74891 40.7001 6.12783C40.7001 7.69355 41.2973 9.12331 42.2771 10.2078C40.376 11.0406 38.8512 12.5487 37.9977 14.4406C37.7133 14.2752 37.4192 14.1268 37.1172 13.9964C38.0954 12.9123 38.6916 11.4838 38.6916 9.9195C38.6916 6.54044 35.914 3.79153 32.5 3.79153C29.0858 3.79153 26.3083 6.54044 26.3083 9.9195C26.3083 11.4839 26.9045 12.9125 27.8827 13.9965C27.5791 14.1283 27.2848 14.2758 27.0023 14.4407C26.1489 12.5488 24.6241 11.0406 22.7231 10.2079C23.7029 9.12357 24.3 7.69381 24.3 6.12809C24.3 2.74918 21.5224 0.000264001 18.1084 0.000264001C14.6943 0.000264001 11.9167 2.74918 11.9167 6.12809C11.9167 7.69249 12.5129 9.12119 13.4911 10.2051C12.001 10.8515 10.7326 11.9198 9.84231 13.2784C8.95203 14.637 8.47877 16.2263 8.48089 17.8506V21.9898C8.48087 22.1198 8.50646 22.2485 8.55619 22.3686C8.60592 22.4887 8.67882 22.5978 8.77073 22.6897C8.86263 22.7816 8.97174 22.8545 9.09182 22.9042C9.21191 22.954 9.34061 22.9795 9.47058 22.9795ZM40.1475 24.791H24.8525V21.6419C24.8525 18.6499 26.9202 16.0905 29.813 15.4394C30.6519 15.8406 31.5702 16.0483 32.5001 16.0471C33.43 16.0483 34.3483 15.8406 35.1871 15.4394C38.0799 16.0905 40.1476 18.6499 40.1476 21.6419V24.791H40.1475ZM46.8919 1.97978C49.2142 1.97978 51.1035 3.8405 51.1035 6.1277C51.1035 8.41489 49.2142 10.2757 46.8919 10.2757C44.5694 10.2757 42.68 8.41489 42.68 6.1277C42.68 3.8405 44.5694 1.97978 46.8919 1.97978ZM44.2055 11.6482C45.0442 12.0493 45.9622 12.2569 46.8919 12.2557C47.8541 12.2557 48.7658 12.0371 49.579 11.6478C52.4718 12.2992 54.5395 14.8585 54.5395 17.8504V20.9996H42.1014C41.9494 18.9864 41.07 17.0972 39.6273 15.6847C40.3659 13.6577 42.0937 12.1262 44.2055 11.6482ZM32.5 5.77131C34.8223 5.77131 36.7117 7.63217 36.7117 9.91936C36.7117 12.2066 34.8223 14.0671 32.5 14.0671C30.1776 14.0671 28.2882 12.2064 28.2882 9.91923C28.2882 7.63204 30.1776 5.77131 32.5 5.77131ZM18.1083 1.97978C20.4306 1.97978 22.32 3.8405 22.32 6.1277C22.32 8.41489 20.4306 10.2757 18.1083 10.2757C15.7858 10.2757 13.8965 8.41489 13.8965 6.1277C13.8965 3.8405 15.7858 1.97978 18.1083 1.97978ZM10.4605 17.8502C10.4605 14.8583 12.5282 12.2991 15.421 11.6477C16.2599 12.049 17.1783 12.2567 18.1083 12.2555C19.0379 12.2568 19.956 12.0492 20.7946 11.6481C22.9063 12.126 24.6342 13.6574 25.3728 15.6846C23.9301 17.097 23.0507 18.9862 22.8987 20.9995H10.4605V17.8502Z" fill="white"/>
</svg>
