<svg width="65" height="61" viewBox="0 0 65 61" fill="none" xmlns="http://www.w3.org/2000/svg">
<path d="M64.0477 51.5016C63.7952 51.5016 63.553 51.602 63.3745 51.7805C63.1959 51.9591 63.0956 52.2013 63.0956 52.4538V58.8158C63.0956 58.9041 63.0237 58.9761 62.9352 58.9761H59.3173V45.065C59.3173 44.5392 58.8912 44.1129 58.3652 44.1129C57.8392 44.1129 57.4131 44.5392 57.4131 45.065V58.9762H50.4218L52.314 56.8946C52.6063 56.573 52.744 56.1164 52.6827 55.6729C52.6813 55.6634 52.6798 55.6539 52.6782 55.6445L50.5511 43.0767L50.9425 42.4875L51.0445 42.5599C51.2198 42.6845 51.4201 42.7697 51.6315 42.8096C51.8429 42.8494 52.0605 42.843 52.2692 42.7907C52.4779 42.7385 52.6729 42.6418 52.8407 42.5071C53.0085 42.3724 53.1451 42.203 53.2411 42.0104V42.0103L55.4056 37.6722L60.3497 39.587C60.5449 39.6718 63.0951 40.8412 63.0951 43.8837V48.0102C63.098 48.2608 63.1995 48.5002 63.3778 48.6764C63.556 48.8527 63.7966 48.9515 64.0472 48.9515C64.2979 48.9515 64.5384 48.8527 64.7167 48.6765C64.895 48.5003 64.9966 48.2609 64.9995 48.0103V43.8838C64.9995 39.49 61.2309 37.8903 61.0706 37.8243C61.0646 37.8217 61.0585 37.8193 61.0524 37.817L52.6333 34.5564V32.8222C53.9475 31.7649 54.8704 30.2411 55.1476 28.504C55.803 28.4218 56.4111 28.1594 56.9158 27.7253C57.2734 27.4178 57.5603 27.0365 57.7569 26.6078C57.9535 26.179 58.0551 25.7128 58.0547 25.2411C58.055 24.4851 57.7938 23.7523 57.3153 23.1671V20.5978C57.3153 15.5697 53.2246 11.4792 48.1968 11.4792C45.9395 11.4792 43.8727 12.3054 42.2785 13.6691C42.2588 12.9453 41.9997 12.2485 41.5417 11.6878V9.11863C41.5417 4.09054 37.451 0 32.4232 0C27.3951 0 23.3046 4.09067 23.3046 9.11863V11.7548C22.8469 12.3017 22.5908 12.9611 22.5682 13.661C21.5283 12.7713 20.3006 12.1283 18.977 11.7801C18.4677 11.646 17.9475 11.9498 17.8136 12.4584C17.6797 12.9669 17.9833 13.4878 18.4919 13.6218C21.6547 14.4546 23.8637 17.3233 23.8637 20.5977V22.0217C23.8044 22.0104 23.745 21.9998 23.6854 21.9897C23.6725 21.721 23.6044 21.5568 23.4579 21.3461C23.2142 20.9958 22.7764 20.5595 21.3685 19.0462C21.1266 18.7853 20.8001 18.6186 20.447 18.5755C20.0938 18.5325 19.7369 18.616 19.4394 18.8111C17.0279 20.3863 14.0982 21.1892 11.3794 21.0296C10.4938 20.9777 9.94065 21.3668 9.70489 22.0044C9.68382 22.0079 9.44832 22.0554 9.43525 22.0585V20.5977C9.43525 17.4405 11.5449 14.6002 14.5655 13.6903C14.6868 13.6556 14.7999 13.5971 14.8984 13.5182C14.9969 13.4394 15.0787 13.3418 15.1391 13.2311C15.1995 13.1203 15.2374 12.9987 15.2504 12.8732C15.2634 12.7478 15.2514 12.621 15.215 12.5002C15.1786 12.3794 15.1186 12.2671 15.0384 12.1697C14.9583 12.0723 14.8596 11.9918 14.748 11.9329C14.6365 11.874 14.5144 11.8378 14.3887 11.8265C14.2631 11.8151 14.1365 11.8289 14.0162 11.8669C12.1792 12.4202 10.5279 13.5721 9.36695 15.1103C8.16559 16.7015 7.5307 18.5991 7.5307 20.5978V23.2341C7.05108 23.8072 6.79171 24.5036 6.79171 25.2411C6.79171 26.8712 7.99268 28.2928 9.70375 28.5048C9.98406 30.2013 10.9045 31.8282 12.3571 32.9343V34.5569L3.94734 37.8173C3.94135 37.8196 3.93538 37.822 3.92944 37.8244C3.76872 37.8903 0 39.4899 0 43.8837V58.8158C0 59.9544 0.926246 60.8805 2.06488 60.8805H31.3873C31.782 60.8805 32.1684 60.7665 32.5 60.5523C32.8316 60.7666 33.218 60.8805 33.6127 60.8805H62.9352C64.0738 60.8805 65 59.9544 65 58.8158V52.4538C65 52.2012 64.8996 51.9591 64.721 51.7805C64.5425 51.6019 64.3003 51.5016 64.0477 51.5016ZM9.61057 26.5374C9.05236 26.3348 8.69575 25.8185 8.69575 25.2408C8.69575 24.6806 9.102 24.2203 9.61057 24.0018V26.5374ZM53.6221 36.9814L51.7531 40.7273L49.6476 39.2318L51.9846 36.3473L53.6221 36.9814ZM48.2712 37.9054L45.8087 34.8658V33.9523C46.6091 34.2291 47.4714 34.3568 48.283 34.3571H48.2836C49.1228 34.3569 49.9724 34.1976 50.729 33.9129V34.8716L48.2712 37.9054ZM49.3891 41.3843L49.0389 41.9115H47.5039L47.1536 41.3843L48.2715 40.5904L49.3891 41.3843ZM32.4975 26.4261L30.035 23.3865V22.473C30.8322 22.7486 31.6936 22.8775 32.5093 22.8778H32.5099C33.3475 22.8778 34.197 22.7189 34.9553 22.4337V23.3923L32.4975 26.4261ZM33.6153 29.9052L33.265 30.4324H31.73L31.3798 29.9052L32.4976 29.1114L33.6153 29.9052ZM24.9993 16.9342C25.1549 16.9766 25.3149 17.0054 25.4772 17.0255C25.7575 18.722 26.678 20.3489 28.1305 21.455V23.0776L26.188 23.8305C26.0751 23.5932 25.9339 23.3704 25.7676 23.167V20.5978C25.7682 19.3366 25.5066 18.0889 24.9993 16.9342ZM37.5572 15.926C37.5572 18.7129 35.2837 20.9731 32.5099 20.9731C29.3804 20.9731 27.289 18.5477 27.289 15.926V11.4659C30.2956 11.5862 33.419 10.6951 35.9727 9.10568C36.8312 10.0263 37.3421 10.5612 37.5573 10.8095L37.5572 15.926ZM39.374 17.0249C39.5344 17.0056 39.6933 16.975 39.8494 16.9333C39.34 18.0878 39.0773 19.3359 39.0781 20.5978V23.234C38.9336 23.406 38.8075 23.5924 38.7015 23.7904L36.8597 23.0772V21.343C38.1738 20.2856 39.0968 18.7618 39.374 17.0249ZM28.7808 24.8695L31.1182 27.7546L29.5242 28.8868L29.5218 28.8887L29.0159 29.2481L27.1468 25.5024L28.7808 24.8695ZM34.6889 26.7464L36.2107 24.868L37.8483 25.5021L35.9794 29.2481L35.4723 28.8881L35.4708 28.8868L33.8739 27.7525L34.6889 26.7464ZM35.1688 31.0083L35.2707 31.0807C35.4461 31.2054 35.6464 31.2906 35.8578 31.3304C36.0692 31.3703 36.2868 31.3638 36.4955 31.3115C36.7042 31.2594 36.8992 31.1626 37.067 31.0279C37.2348 30.8932 37.3714 30.7238 37.4674 30.5312V30.5311L39.0744 27.3104C39.6265 27.9909 40.425 28.4048 41.2474 28.5075C41.5379 30.328 42.5219 31.8816 43.9044 32.9343V34.5568L35.8094 37.6952L34.7773 31.5976L35.1688 31.0083ZM44.5545 36.3487L46.892 39.2338L44.7896 40.7273L42.9205 36.9816L44.5545 36.3487ZM53.3308 27.4053C53.331 30.1242 51.1229 32.4524 48.2836 32.4524C45.0474 32.4524 43.0627 29.9177 43.0627 27.4053V22.9452C46.0479 23.0644 49.1754 22.1851 51.7463 20.585C52.6049 21.5056 53.1157 22.0405 53.3309 22.2888L53.3308 27.4053ZM56.1504 25.241C56.1504 25.8196 55.7926 26.3349 55.2356 26.5374V23.9472C55.8114 24.1569 56.1504 24.6831 56.1504 25.241ZM40.9825 20.5977C40.9825 16.6197 44.2189 13.3835 48.1967 13.3835C52.1746 13.3835 55.4108 16.6199 55.4108 20.5977V22.0217C55.3515 22.0102 55.2921 21.9996 55.2325 21.9897C55.2196 21.7207 55.1511 21.5562 55.005 21.3461C54.7548 20.9867 54.3219 20.5578 52.9156 19.0462C52.4246 18.5191 51.6149 18.4004 50.9865 18.8111C48.6404 20.3437 45.6763 21.2093 42.8558 21.0261C42.0635 20.9742 41.4895 21.3622 41.252 22.0046C41.2308 22.008 40.9957 22.0555 40.9823 22.0587L40.9825 20.5977ZM41.1583 24.0019V26.5361C40.5984 26.3343 40.2435 25.8166 40.2435 25.2408C40.2434 24.6806 40.6493 24.2205 41.1583 24.0019ZM40.3764 13.7618C40.3764 14.1627 40.2029 14.5419 39.9003 14.802C39.7708 14.9133 39.6221 15 39.4616 15.0581V12.4679C40.031 12.6746 40.3764 13.198 40.3764 13.7618ZM32.4228 1.90429C36.4007 1.90429 39.637 5.14057 39.637 9.1185V10.5425C39.5778 10.5311 39.5183 10.5204 39.4588 10.5105C39.4447 10.2189 39.3606 10.0397 39.1891 9.80772C38.9342 9.46267 38.4642 8.98825 37.1419 7.56689C36.8999 7.30611 36.5735 7.13943 36.2203 7.09639C35.8672 7.05336 35.5102 7.13674 35.2127 7.33177C32.7351 8.95041 29.7295 9.73816 27.0052 9.54303C26.3387 9.49263 25.7112 9.89532 25.4784 10.5251C25.4572 10.5286 25.2219 10.576 25.2087 10.5792V9.11863C25.2087 5.14057 28.445 1.90429 32.4228 1.90429ZM25.3843 12.5226V15.0582C24.8261 14.8556 24.4695 14.3393 24.4695 13.7617C24.4695 13.2046 24.8726 12.7426 25.3843 12.5226ZM23.6877 23.9472C24.2204 24.1411 24.5625 24.6058 24.5964 25.1582C24.6391 25.7724 24.2617 26.3278 23.6877 26.5363V23.9472ZM23.5995 28.5072C24.4975 28.3949 25.3218 27.9216 25.8624 27.1935L27.5278 30.5311L27.5279 30.5312C27.6239 30.7238 27.7604 30.8933 27.9282 31.028C28.096 31.1627 28.291 31.2594 28.4997 31.3115C28.9178 31.416 29.365 31.336 29.7244 31.0807L29.8264 31.0083L30.2178 31.5975L29.186 37.6934L21.0859 34.5563V32.8228H21.0858C22.4344 31.7355 23.3288 30.1991 23.5995 28.5072ZM16.7235 37.9054L14.261 34.8658V33.9523C15.0582 34.228 15.9197 34.3568 16.7354 34.3569H16.7359C17.5709 34.3552 18.399 34.2048 19.1813 33.9129V34.8716L16.7235 37.9054ZM17.8414 41.3843L17.4912 41.9115H15.9562L15.6059 41.3843L16.7237 40.5904L17.8414 41.3843ZM20.4367 36.3473L22.0744 36.9816L20.2054 40.7273L19.6984 40.3673L19.6968 40.366L18.0999 39.2318L20.4367 36.3473ZM11.515 27.4053V22.9452C14.5376 23.0659 17.663 22.163 20.1985 20.585C21.049 21.497 21.5677 22.0402 21.7832 22.2888V27.4053C21.7832 30.1745 19.5253 32.4524 16.7359 32.4524C13.6303 32.4524 11.515 30.0546 11.515 27.4053ZM13.0069 36.3487L15.3444 39.2338L13.7504 40.366L13.748 40.3679L13.242 40.7273L11.3729 36.9816L13.0069 36.3487ZM7.58707 58.9764V45.065C7.58707 44.5392 7.16089 44.1129 6.63493 44.1129C6.10896 44.1129 5.68278 44.5392 5.68278 45.065V58.9762H2.06488C2.02236 58.9762 1.98158 58.9593 1.9515 58.9292C1.92142 58.8992 1.90448 58.8584 1.90442 58.8159V43.8837C1.90442 40.8256 4.48117 39.6599 4.64799 39.5878L9.58911 37.6722L11.7538 42.0103L11.7539 42.0104C11.8499 42.203 11.9865 42.3725 12.1543 42.5072C12.3221 42.6419 12.5171 42.7386 12.7259 42.7907C13.1439 42.8951 13.5912 42.8152 13.9506 42.5599L14.0525 42.4875L14.4439 43.0767L12.3168 55.6445C12.3152 55.6539 12.3137 55.6634 12.3124 55.6729C12.2512 56.1161 12.3889 56.5728 12.6813 56.8948L14.5733 58.9762H7.58707V58.9764ZM14.228 55.7648L16.2502 43.8159H17.1971L19.2195 55.7648L16.7237 58.5104L14.228 55.7648ZM31.5476 58.8158C31.5476 58.9042 31.4757 58.9762 31.3873 58.9762H27.7696V45.065C27.7696 44.8125 27.6693 44.5703 27.4907 44.3917C27.3122 44.2132 27.07 44.1129 26.8175 44.1129C26.565 44.1129 26.3228 44.2132 26.1442 44.3917C25.9656 44.5703 25.8653 44.8125 25.8653 45.065V58.9762H18.874L20.7663 56.8946C21.0585 56.573 21.1963 56.1164 21.1349 55.6729C21.1336 55.6634 21.1321 55.6539 21.1305 55.6445L19.0034 43.0767L19.3948 42.4875L19.4967 42.5599C19.6722 42.6844 19.8725 42.7696 20.0839 42.8094C20.2953 42.8492 20.5129 42.8428 20.7216 42.7906C20.9303 42.7384 21.1252 42.6416 21.293 42.507C21.4608 42.3723 21.5974 42.2029 21.6935 42.0104V42.0103L23.858 37.6723L28.8021 39.5871C30.2433 40.214 31.5475 41.8308 31.5475 43.8837L31.5476 58.8158ZM32.4999 40.4238C32.1054 39.7882 31.5804 39.2002 30.9474 38.6983L32.0241 32.3369H32.971L34.0482 38.7016C33.3983 39.2177 32.8801 39.8111 32.4999 40.4238ZM39.1347 58.9764V45.065C39.1347 44.5392 38.7085 44.1129 38.1825 44.1129C37.6566 44.1129 37.2304 44.5392 37.2304 45.065V58.9762H33.6126C33.5701 58.9762 33.5293 58.9593 33.4992 58.9292C33.4691 58.8992 33.4522 58.8584 33.4521 58.8159V43.8837C33.4521 42.7518 33.8071 41.7093 34.5632 40.8334C35.0674 40.2552 35.736 39.787 36.1958 39.5878L41.137 37.6721L43.3016 42.0103L43.3018 42.0104C43.3977 42.203 43.5343 42.3725 43.7021 42.5072C43.8698 42.6419 44.0648 42.7386 44.2736 42.7907C44.6916 42.8951 45.1389 42.8152 45.4983 42.5599L45.6002 42.4875L45.9916 43.0767L43.8645 55.6445C43.8629 55.6539 43.8615 55.6634 43.8601 55.6729C43.7989 56.1161 43.9367 56.5728 44.229 56.8948L46.121 58.9762H39.1347V58.9764ZM45.7756 55.765L47.7979 43.8161H48.7449L50.7672 55.765L48.2713 58.5106L45.7756 55.765Z" fill="white"/>
</svg>
