<svg width="65" height="66" viewBox="0 0 65 66" fill="none" xmlns="http://www.w3.org/2000/svg">
<path d="M49.1758 7.20528L32.9221 0.0904629C32.7854 0.0307971 32.6378 0 32.4887 0C32.3395 0 32.1919 0.0307971 32.0552 0.0904629L15.8015 7.20528C15.6084 7.28958 15.444 7.42837 15.3285 7.60466C15.213 7.78096 15.1515 7.9871 15.1514 8.19784V25.2101C15.1568 29.033 16.9935 32.6218 20.0925 34.8627L31.326 42.9646C31.6642 43.2095 32.0711 43.3413 32.4887 43.3413C32.9062 43.3413 33.3131 43.2095 33.6513 42.9646L44.8848 34.8638C46.4121 33.7593 47.6561 32.3088 48.515 30.6311C49.3738 28.9533 49.8231 27.096 49.826 25.2112V8.19784C49.8258 7.9871 49.7643 7.78096 49.6488 7.60466C49.5333 7.42837 49.369 7.28958 49.1758 7.20528ZM47.6588 25.2112C47.6563 26.7528 47.2888 28.272 46.5863 29.6442C45.8838 31.0165 44.8663 32.2029 43.617 33.1062L32.4887 41.1323L21.3603 33.1062C20.1111 32.2029 19.0935 31.0165 18.391 29.6442C17.6885 28.272 17.321 26.7528 17.3185 25.2112V8.90651L32.4887 2.2663L47.6588 8.90651V25.2112Z" fill="white"/>
<path d="M32.0551 4.82118L20.1357 10.0397C19.9425 10.124 19.7782 10.2628 19.6627 10.4391C19.5472 10.6154 19.4856 10.8215 19.4855 11.0323V25.211C19.4872 26.4095 19.7728 27.5906 20.319 28.6574C20.8653 29.7242 21.6565 30.6464 22.6279 31.3484L31.8546 38.0038C32.0392 38.1369 32.261 38.2085 32.4885 38.2085C32.7161 38.2085 32.9378 38.1369 33.1224 38.0038L42.3491 31.3484C43.3205 30.6464 44.1118 29.7242 44.658 28.6574C45.2042 27.5906 45.4898 26.4095 45.4915 25.211V11.0323C45.4914 10.8215 45.4298 10.6154 45.3143 10.4391C45.1989 10.2628 45.0345 10.124 44.8413 10.0397L32.9219 4.82118C32.7852 4.76151 32.6377 4.73071 32.4885 4.73071C32.3393 4.73071 32.1918 4.76151 32.0551 4.82118ZM43.3243 11.7399V25.211C43.3227 26.0663 43.1186 26.909 42.7287 27.6702C42.3389 28.4315 41.7743 29.0896 41.0813 29.5908L32.4885 35.7889L23.8957 29.5908C23.2027 29.0896 22.6381 28.4315 22.2483 27.6702C21.8584 26.909 21.6543 26.0663 21.6527 25.211V11.7399L32.4885 6.99701L43.3243 11.7399ZM8.95855 35.9742L6.61477 30.4978C6.43156 30.0828 6.1684 29.7079 5.84032 29.3946C5.51224 29.0813 5.12566 28.8357 4.70266 28.6718C4.27965 28.5078 3.8285 28.4289 3.37497 28.4393C2.92144 28.4498 2.47441 28.5494 2.05939 28.7326C1.64438 28.9158 1.26952 29.179 0.95621 29.5071C0.6429 29.8352 0.397278 30.2217 0.233368 30.6448C0.0694587 31.0678 -0.00952875 31.5189 0.000915733 31.9724C0.0113602 32.426 0.111032 32.873 0.294241 33.288L4.54079 42.6296C5.1137 43.8942 5.91069 45.0447 6.89325 46.0256L13.5714 52.7048C13.1954 53.1035 12.9862 53.6301 12.9841 54.1784V62.8471C12.9841 63.4219 13.2124 63.9731 13.6188 64.3795C14.0252 64.786 14.5765 65.0143 15.1512 65.0143H27.0706C27.6454 65.0143 28.1966 64.786 28.603 64.3795C29.0094 63.9731 29.2378 63.4219 29.2378 62.8471V54.1784C29.2378 53.6037 29.0094 53.0524 28.603 52.646C28.1966 52.2396 27.6454 52.0113 27.0706 52.0113V49.9947C27.1038 47.4284 26.2666 44.9266 24.6954 42.8972C23.7742 41.6857 22.5188 40.7701 21.0838 40.2631C18.8016 39.3042 16.7028 37.9572 14.8803 36.282C14.0563 35.6033 13.0362 35.2071 11.9702 35.1517C10.9041 35.0963 9.84846 35.3846 8.95855 35.9742ZM27.0706 62.8471H15.1512V54.1784H27.0706V62.8471ZM23.0039 44.2506C24.267 45.8962 24.9364 47.9206 24.9034 49.9947V52.0113H15.9433L8.42543 44.4934C7.62698 43.696 6.97907 42.7611 6.51291 41.7335L2.26636 32.3919C2.19094 32.2362 2.14766 32.0669 2.13909 31.8941C2.13052 31.7213 2.15685 31.5485 2.21649 31.3861C2.27613 31.2237 2.36788 31.075 2.48624 30.9488C2.60461 30.8226 2.74718 30.7216 2.90545 30.6517C3.06371 30.5818 3.23443 30.5445 3.40743 30.542C3.58042 30.5396 3.75214 30.5719 3.91234 30.6373C4.07255 30.7026 4.21795 30.7995 4.33989 30.9223C4.46182 31.045 4.55779 31.191 4.62206 31.3517L7.04603 37.0047C7.6897 38.513 8.61749 39.8833 9.77882 41.0411L14.7286 45.992C14.8286 46.0955 14.9481 46.178 15.0803 46.2348C15.2125 46.2916 15.3547 46.3215 15.4986 46.3227C15.6425 46.324 15.7852 46.2966 15.9183 46.2421C16.0515 46.1876 16.1725 46.1071 16.2742 46.0054C16.376 45.9037 16.4564 45.7827 16.5109 45.6495C16.5654 45.5163 16.5928 45.3736 16.5916 45.2298C16.5903 45.0859 16.5604 44.9437 16.5036 44.8115C16.4468 44.6793 16.3643 44.5597 16.2608 44.4598L11.311 39.5089C10.8133 39.0124 10.3658 38.4679 9.97495 37.8835C10.4803 37.4947 11.1025 37.2887 11.74 37.2994C12.3775 37.31 12.9926 37.5365 13.4847 37.942C15.5103 39.801 17.8514 41.2834 20.3979 42.3197C21.4355 42.697 22.3409 43.3679 23.0039 44.2506Z" fill="white"/>
<path d="M23.82 57.4291H22.7364C22.449 57.4291 22.1734 57.5432 21.9702 57.7464C21.767 57.9496 21.6528 58.2253 21.6528 58.5126C21.6528 58.8 21.767 59.0756 21.9702 59.2789C22.1734 59.4821 22.449 59.5962 22.7364 59.5962H23.82C24.1074 59.5962 24.383 59.4821 24.5862 59.2789C24.7894 59.0756 24.9036 58.8 24.9036 58.5126C24.9036 58.2253 24.7894 57.9496 24.5862 57.7464C24.383 57.5432 24.1074 57.4291 23.82 57.4291ZM60.4364 42.6295L64.6829 33.2879C64.8748 32.8716 64.9819 32.4214 64.998 31.9633C65.0141 31.5053 64.9389 31.0486 64.7767 30.6199C64.6146 30.1913 64.3688 29.7991 64.0536 29.4664C63.7384 29.1336 63.3602 28.8669 62.9409 28.6818C62.5217 28.4967 62.0697 28.3968 61.6115 28.3881C61.1533 28.3793 60.6979 28.4619 60.2718 28.6309C59.8458 28.7999 59.4577 29.052 59.13 29.3725C58.8024 29.693 58.5418 30.0755 58.3635 30.4977L56.0251 35.9535C55.132 35.3668 54.0744 35.0817 53.0075 35.1403C51.9405 35.1988 50.9204 35.5977 50.0968 36.2786C48.2744 37.9539 46.1755 39.3008 43.8933 40.2597C42.4583 40.7667 41.2029 41.6823 40.2818 42.8939C38.7099 44.9241 37.8726 47.4272 37.9065 49.9946V52.0111C37.3318 52.0111 36.7806 52.2395 36.3741 52.6459C35.9677 53.0523 35.7394 53.6035 35.7394 54.1783V62.847C35.7394 63.4218 35.9677 63.973 36.3741 64.3794C36.7806 64.7858 37.3318 65.0142 37.9065 65.0142H49.8259C50.4007 65.0142 50.9519 64.7858 51.3584 64.3794C51.7648 63.973 51.9931 63.4218 51.9931 62.847V54.1783C51.9919 53.6303 51.7819 53.1033 51.4058 52.7046L58.0839 46.0254C59.0665 45.0446 59.8635 43.8941 60.4364 42.6295ZM49.8259 62.847H37.9065V54.1783H49.8259V62.847ZM49.0338 52.0111H40.0737V49.9946C40.041 47.9208 40.7104 45.8969 41.9732 44.2516C42.6348 43.3694 43.5382 42.6982 44.5738 42.3196C47.1208 41.2836 49.4624 39.8011 51.4881 37.9419C51.9796 37.5334 52.5954 37.3041 53.2343 37.2917C53.8732 37.2793 54.4974 37.4845 55.0044 37.8736C54.6124 38.4623 54.1627 39.0105 53.6618 39.5098L48.712 44.4607C48.5146 44.6651 48.4054 44.9388 48.4079 45.2229C48.4103 45.507 48.5243 45.7788 48.7252 45.9797C48.9261 46.1806 49.1979 46.2946 49.482 46.297C49.7661 46.2995 50.0398 46.1903 50.2442 45.9929L55.194 41.042C56.3553 39.8843 57.2831 38.5139 57.9268 37.0057L60.3508 31.3515C60.4425 31.1364 60.5911 30.9505 60.7807 30.8135C60.9702 30.6766 61.1935 30.594 61.4265 30.5745C61.6595 30.555 61.8935 30.5994 62.1031 30.7029C62.3128 30.8064 62.4903 30.9651 62.6165 31.1619C62.8549 31.5303 62.8874 31.9941 62.7065 32.3928L58.4599 41.7344C57.9937 42.762 57.3458 43.697 56.5474 44.4943L49.0338 52.0111Z" fill="white"/>
<path d="M42.2409 57.43H41.1573C40.8699 57.43 40.5943 57.5442 40.3911 57.7474C40.1879 57.9506 40.0737 58.2262 40.0737 58.5136C40.0737 58.801 40.1879 59.0766 40.3911 59.2798C40.5943 59.483 40.8699 59.5972 41.1573 59.5972H42.2409C42.5282 59.5972 42.8039 59.483 43.0071 59.2798C43.2103 59.0766 43.3244 58.801 43.3244 58.5136C43.3244 58.2262 43.2103 57.9506 43.0071 57.7474C42.8039 57.5442 42.5282 57.43 42.2409 57.43ZM26.6373 22.972C26.4074 22.7996 26.1184 22.7256 25.8339 22.7662C25.5494 22.8069 25.2927 22.9589 25.1203 23.1888C24.9479 23.4187 24.8738 23.7077 24.9145 23.9922C24.9551 24.2767 25.1071 24.5333 25.337 24.7058L29.6713 27.9565C29.7892 28.045 29.9239 28.1084 30.0671 28.143C30.2103 28.1776 30.3591 28.1827 30.5043 28.1578C30.6496 28.133 30.7882 28.0788 30.9118 27.9985C31.0353 27.9182 31.1412 27.8136 31.223 27.6911L39.8917 14.688C40.0512 14.4489 40.1091 14.1563 40.0529 13.8744C39.9966 13.5926 39.8306 13.3446 39.5915 13.1851C39.3524 13.0256 39.0597 12.9676 38.7779 13.0239C38.496 13.0802 38.2481 13.2462 38.0886 13.4853L30.0549 25.5358L26.6373 22.972Z" fill="white"/>
</svg>
