<svg width="65" height="83" viewBox="0 0 65 83" fill="none" xmlns="http://www.w3.org/2000/svg">
<path d="M32.5112 1.20718e-05C29.7952 -0.00292327 27.1054 0.529481 24.5954 1.56679C22.0853 2.60409 19.8044 4.12595 17.8829 6.04536C15.9614 7.96477 14.4371 10.2441 13.3971 12.753C12.357 15.2619 11.8217 17.9512 11.8217 20.6671L11.8106 54.7419C8.56249 55.1058 5.5624 56.6538 3.38365 59.0901C1.2049 61.5264 0.000275807 64.6801 0 67.9485V81.2556C0.0231321 81.6316 0.188814 81.9847 0.463267 82.2428C0.73772 82.5009 1.10028 82.6445 1.47702 82.6445C1.85376 82.6445 2.21632 82.5009 2.49077 82.2428C2.76522 81.9847 2.93091 81.6316 2.95404 81.2556V67.9485C2.95404 62.1967 7.53308 57.6121 13.296 57.6121H15.8312L14.8093 61.6886C14.7559 61.9067 14.7528 62.1341 14.8004 62.3535C14.8479 62.573 14.9447 62.7788 15.0836 62.9553C15.2224 63.1318 15.3995 63.2744 15.6016 63.3722C15.8037 63.4701 16.0255 63.5207 16.25 63.5202H19.7625L17.8862 67.2951C17.7408 67.5853 17.6948 67.9152 17.7554 68.2341C17.8159 68.5529 17.9796 68.843 18.2212 69.0597L31.5172 80.8703C31.6651 81.0019 31.8379 81.1026 32.0253 81.1662C32.0291 81.1663 32.0328 81.1663 32.0365 81.1662C32.0421 81.1681 32.0477 81.17 32.0533 81.1718C32.1423 81.2009 32.2339 81.2215 32.3269 81.2333C32.3751 81.2394 32.4235 81.2431 32.4721 81.2444C32.5656 81.2458 32.6591 81.2383 32.7513 81.2221C32.8505 81.206 32.9478 81.1798 33.0417 81.1439C33.0435 81.1421 33.0454 81.1402 33.0472 81.1383C33.2065 81.0766 33.3539 80.9878 33.4828 80.8759L46.7732 69.0597C47.0157 68.8437 47.1805 68.5539 47.2421 68.235C47.3036 67.9162 47.2586 67.5859 47.1138 67.2951L45.2264 63.5202H48.75C48.9736 63.519 49.194 63.4672 49.3947 63.3686C49.5954 63.27 49.7712 63.1272 49.9087 62.9509C50.0463 62.7746 50.1422 62.5695 50.1891 62.3508C50.236 62.1322 50.2327 61.9058 50.1796 61.6886L49.1632 57.6121H51.704C57.4558 57.6121 62.046 62.1912 62.046 67.9485V81.2556C62.0691 81.6316 62.2348 81.9847 62.5092 82.2428C62.7837 82.5009 63.1462 82.6445 63.523 82.6445C63.8997 82.6445 64.2623 82.5009 64.5367 82.2428C64.8112 81.9847 64.9769 81.6316 65 81.2556V67.9485C64.9982 64.6787 63.7916 61.5242 61.6108 59.0879C59.43 56.6517 56.4279 55.1044 53.1783 54.7419L53.1894 20.6671C53.1894 17.9524 52.6545 15.2643 51.6151 12.7564C50.5757 10.2486 49.0523 7.9701 47.1319 6.05129C45.2115 4.13247 42.9318 2.6109 40.4231 1.57355C37.9144 0.536197 35.2259 -0.00218905 32.5112 1.20718e-05ZM32.5112 2.95405C34.8412 2.94371 37.1502 3.39491 39.3049 4.28162C41.4596 5.16834 43.4173 6.473 45.0652 8.12032C46.713 9.76764 48.0183 11.725 48.9057 13.8794C49.7931 16.0338 50.245 18.3427 50.2354 20.6727L50.2242 54.6581H47.6834L41.3677 50.872V45.7904H41.3454C43.1847 44.4193 44.6782 42.6375 45.7069 40.587C46.7355 38.5364 47.2709 36.2739 47.2702 33.9798L47.2925 25.1121C47.2963 24.914 47.2602 24.7172 47.1865 24.5333C47.1127 24.3494 47.0028 24.1822 46.8633 24.0416C46.7237 23.901 46.5573 23.7899 46.374 23.7147C46.1906 23.6396 45.9941 23.6021 45.796 23.6044C45.7416 23.6088 45.6875 23.6163 45.634 23.6267C43.707 23.5886 41.8724 22.7932 40.5274 21.4126C39.1824 20.0321 38.435 18.1774 38.4472 16.25C38.4509 16.0519 38.4149 15.8551 38.3411 15.6712C38.2674 15.4873 38.1575 15.3201 38.0179 15.1795C37.8783 15.0389 37.7119 14.9277 37.5286 14.8526C37.3453 14.7775 37.1487 14.74 36.9506 14.7423C36.9001 14.7453 36.8498 14.7509 36.7998 14.759C36.4361 14.8018 36.1012 14.978 35.8599 15.2534C35.6185 15.5288 35.4879 15.8839 35.4931 16.25C35.4931 20.3711 32.2264 23.6379 28.1052 23.6379H19.2264C18.8358 23.6379 18.4611 23.7923 18.1839 24.0674C17.9067 24.3425 17.7495 24.716 17.7466 25.1065L17.7242 33.9742C17.7194 36.2712 18.2534 38.5373 19.2834 40.5905C20.3133 42.6436 21.8105 44.4265 23.6546 45.796H23.6379V50.8776L17.3166 54.6637H14.7702L14.7814 20.6783C14.7732 18.3477 15.2265 16.0387 16.1152 13.8842C17.0038 11.7297 18.3101 9.77241 19.9588 8.12524C21.6076 6.47807 23.5661 5.17359 25.7214 4.28701C27.8767 3.40043 30.1862 2.9493 32.5168 2.95963L32.5112 2.95405ZM36.9618 21.555C38.5253 24.1572 41.2113 26.0168 44.3385 26.4691L44.3106 33.9687C44.3106 33.9724 44.3106 33.9761 44.3106 33.9798C44.3195 35.5336 44.0201 37.0736 43.4297 38.5109C42.8394 39.9481 41.9699 41.254 40.8715 42.3529C39.7731 43.4519 38.4676 44.322 37.0306 44.913C35.5937 45.504 34.0537 45.8041 32.5 45.796C30.9453 45.8056 29.4042 45.5066 27.9659 44.9162C26.5277 44.3259 25.2209 43.456 24.1213 42.3569C23.0217 41.2578 22.1511 39.9515 21.5601 38.5135C20.9691 37.0755 20.6694 35.5345 20.6783 33.9798L20.7006 26.5864H28.1052C28.1613 26.5858 28.2172 26.5821 28.2728 26.5752C30.0283 26.5458 31.7474 26.0694 33.2678 25.191C34.7881 24.3126 36.0594 23.0612 36.9618 21.555ZM26.5863 47.5103C28.4508 48.3275 30.4643 48.7494 32.5 48.7494C34.5357 48.7494 36.5492 48.3275 38.4137 47.5103V51.4974L37.0623 56.6349L32.5 58.9244L27.9433 56.6349L26.5863 51.4974V47.5103ZM24.1851 53.988L29.8252 75.4313L21.0245 67.6078L23.4815 62.7105C23.5935 62.4854 23.6462 62.2355 23.6348 61.9844C23.6234 61.7333 23.5482 61.4892 23.4164 61.2752C23.2845 61.0612 23.1003 60.8843 22.8811 60.7613C22.6619 60.6382 22.415 60.573 22.1637 60.5717H18.1375L19.0086 57.0928L24.1851 53.988ZM40.8093 53.988L45.9914 57.0928L46.8625 60.5717H42.8419C42.5901 60.572 42.3425 60.6365 42.1225 60.7592C41.9026 60.8819 41.7176 61.0587 41.5851 61.2729C41.4526 61.487 41.3769 61.7315 41.3653 61.983C41.3536 62.2346 41.4063 62.485 41.5185 62.7105L43.9644 67.6078L35.1692 75.4257L40.8093 53.988ZM36.0627 60.4377L32.5 73.9682L28.9429 60.4433L32.5 62.2191L36.0627 60.4377Z" fill="white"/>
</svg>
