<svg width="35" height="39" viewBox="0 0 35 39" fill="none" xmlns="http://www.w3.org/2000/svg">
<path d="M1.15182 38.8064C1.18421 38.8098 1.21675 38.8115 1.24932 38.8115C1.50155 38.8112 1.74463 38.717 1.93124 38.5472C2.11784 38.3775 2.23461 38.1445 2.25883 37.8934L2.77273 32.0984C2.92926 30.576 3.64411 29.1655 4.77936 28.1392C5.9146 27.1128 7.38976 26.5433 8.92018 26.5405C9.38431 29.6264 12.9826 31.9562 17.499 31.9562C22.0154 31.9562 25.6137 29.6264 26.0778 26.5405C27.6082 26.5431 29.0834 27.1126 30.2186 28.1388C31.3539 29.1651 32.0687 30.5755 32.2253 32.0979L32.7376 37.8934C32.7619 38.1447 32.8789 38.378 33.0658 38.5478C33.2527 38.7175 33.4962 38.8115 33.7487 38.8115C33.7816 38.8115 33.8145 38.8098 33.8472 38.8064C33.98 38.7937 34.109 38.7549 34.2269 38.6923C34.3447 38.6297 34.449 38.5445 34.5339 38.4416C34.6188 38.3386 34.6826 38.2199 34.7216 38.0923C34.7606 37.9647 34.7741 37.8307 34.7612 37.6979L34.2489 31.9019C34.0437 29.8599 33.082 27.9686 31.5529 26.5999C30.0239 25.2311 28.038 24.4839 25.9859 24.5052H24.4686C24.0491 24.5083 23.6383 24.385 23.2899 24.1513C22.9414 23.9176 22.6714 23.5844 22.5151 23.1951C22.3953 22.8772 22.3016 22.5501 22.2348 22.2171C25.0145 19.8731 26.7918 15.7543 27.0965 12.3947C27.1974 12.2352 27.2755 12.0624 27.3285 11.8813C27.9988 9.55254 27.5012 6.38285 26.9655 4.1338C26.8223 3.45799 26.6253 2.79472 26.3764 2.15034C26.1994 1.72693 25.9006 1.3656 25.5181 1.11212C25.1355 0.858642 24.6863 0.724421 24.2274 0.726463C23.7152 0.743029 23.2142 0.880677 22.7654 1.12813C21.5618 1.77227 20.2158 2.10401 18.8508 2.09296C18.6644 2.09296 18.4725 2.08788 18.2739 2.07874H18.2394L12.7688 1.90913C12.6889 1.90541 12.6094 1.90371 12.5302 1.90405C11.7185 1.90476 10.9179 2.09151 10.1897 2.44994C7.39678 3.82913 6.84632 10.1964 7.7695 12.6186C7.8232 12.7534 7.89131 12.8819 7.97262 13.002C8.42457 16.2388 10.1521 20.0097 12.7653 22.2166C12.6985 22.5496 12.6047 22.8767 12.485 23.1946C12.3286 23.5839 12.0586 23.9171 11.7102 24.1508C11.3617 24.3845 10.951 24.5078 10.5314 24.5047H9.0121C6.96017 24.4838 4.97464 25.2312 3.44587 26.6001C1.9171 27.9689 0.955689 29.8601 0.750656 31.9019L0.238791 37.6984C0.213038 37.9664 0.294743 38.2336 0.46595 38.4414C0.637156 38.6492 0.883853 38.7805 1.15182 38.8064ZM9.67122 11.8981H9.66767C8.92425 9.9466 9.66767 4.97675 11.0895 4.27345C11.5373 4.05215 12.0302 3.93728 12.5296 3.93779C12.5828 3.93779 12.6363 3.93915 12.6901 3.94186L18.1744 4.11197C18.4064 4.12314 18.6314 4.12873 18.8487 4.12873C20.5201 4.13828 22.1683 3.73722 23.6485 2.96079C23.8257 2.85452 24.0226 2.78542 24.2274 2.75767C24.2902 2.75555 24.352 2.77372 24.4037 2.80948C24.4554 2.84524 24.4941 2.89669 24.5143 2.95621C24.709 3.49454 24.8685 4.04498 24.9916 4.60403C25.3776 6.22442 25.9564 9.30677 25.3786 11.3192L22.481 8.86143C22.1219 8.55566 21.6655 8.38787 21.1938 8.38816C20.8466 8.38853 20.5053 8.47786 20.2025 8.64764C19.3455 9.14003 18.3793 9.41135 17.3912 9.43715C16.4031 9.46295 15.4242 9.24241 14.5426 8.79541C14.2785 8.66464 13.9877 8.59669 13.693 8.59686C13.4158 8.59836 13.1419 8.65714 12.8885 8.76951C12.6351 8.88189 12.4076 9.04544 12.2204 9.2499C11.1713 10.3848 9.75755 11.8981 9.67122 11.8981ZM10.1943 13.8643C10.8036 13.7119 11.2413 13.2549 12.0559 12.4003C12.4784 11.9565 13.0308 11.3654 13.6981 10.6433C14.8688 11.2222 16.1636 11.5051 17.469 11.4671C18.7744 11.4291 20.0506 11.0714 21.1856 10.4255L24.0654 12.868C24.3141 13.0765 24.6093 13.2221 24.9261 13.2925C24.1583 17.3996 21.1262 22.0541 17.499 22.0541C14.0393 22.0541 11.122 17.819 10.1938 13.8643H10.1943ZM14.3796 23.9223C14.4451 23.7512 14.4974 23.5704 14.5512 23.3906C15.4668 23.8477 16.4762 24.0856 17.4995 24.0856C18.5229 24.0856 19.5322 23.8477 20.4478 23.3906C20.5016 23.5704 20.5534 23.7512 20.6194 23.9223C20.8954 24.6202 21.3569 25.2294 21.954 25.684C22.5512 26.1386 23.2613 26.4213 24.0075 26.5014C23.4911 28.4123 20.7246 29.925 17.499 29.925C14.2734 29.925 11.5069 28.4123 10.9915 26.5014C11.7376 26.4212 12.4476 26.1385 13.0447 25.6839C13.6418 25.2293 14.1037 24.6202 14.3796 23.9223Z" fill="white"/>
</svg>
