<svg width="51" height="47" viewBox="0 0 51 47" fill="none" xmlns="http://www.w3.org/2000/svg">
<g clip-path="url(#clip0_1_5542)">
<g clip-path="url(#clip1_1_5542)">
<path fill-rule="evenodd" clip-rule="evenodd" d="M18.7206 -2.59618e-09C18.2197 0.000820171 17.7296 0.151229 17.3084 0.433397C16.5239 0.956866 16.059 1.86282 15.9801 2.8484C15.9578 2.91739 15.9468 2.98974 15.9475 3.0625L15.95 3.11079L15.9475 3.13299C15.9475 3.17475 15.9512 3.21783 15.9575 3.25831C16.0114 5.7164 17.0527 8.0596 18.8634 9.78796C18.8736 9.79791 18.8839 9.80749 18.8947 9.81669L18.8947 11.8766C9.02045 20.5106 6.10453 28.612 5.9479 34.8414L5.93286 34.8414L5.93286 36.0672C5.93286 39.2198 8.04806 41.9807 11.281 43.9101C14.514 45.8395 18.9148 47 23.7818 47L26.5385 47C31.4055 47 35.8063 45.8381 39.0392 43.9101C42.2722 41.9807 44.3874 39.2198 44.3874 36.0672L44.3874 34.8401L44.3723 34.8401C44.217 28.629 41.3136 20.5603 31.5082 11.9523L31.5082 9.73445C33.2839 8.01261 34.3076 5.6942 34.3627 3.26353C34.3702 3.22047 34.3736 3.17674 34.3728 3.13299L34.3703 3.11079L34.3728 3.0625C34.3734 2.98974 34.3624 2.91739 34.3402 2.8484C34.2613 1.86282 33.7964 0.956866 33.0119 0.433397C32.5905 0.15189 32.1003 0.00225845 31.5997 0.00225845C31.0991 0.00225845 30.6089 0.15189 30.1875 0.433397C29.9007 0.634228 29.6518 0.888208 29.4532 1.1827C29.2545 0.888208 29.0056 0.634228 28.7189 0.433397C28.2979 0.151964 27.8082 0.0023594 27.3079 0.0023594C26.8077 0.0023594 26.3179 0.151964 25.897 0.433397C25.6093 0.634023 25.3596 0.888012 25.1601 1.1827C24.9616 0.888131 24.7127 0.634135 24.4259 0.433397C24.0044 0.15189 23.5143 0.00225845 23.0136 0.00225845C22.513 0.00225845 22.0229 0.15189 21.6014 0.433397C21.3146 0.634135 21.0657 0.888131 20.8671 1.1827C20.6684 0.888208 20.4195 0.634228 20.1327 0.433397C19.7114 0.151229 19.2214 0.000820171 18.7206 -2.59618e-09ZM18.7206 1.30019C18.9712 1.30019 19.2242 1.37851 19.4573 1.53516C19.9223 1.84585 20.2381 2.44895 20.2405 3.12384L20.2405 3.13299C20.2405 3.23498 20.2633 3.33559 20.3068 3.42692C20.3504 3.51825 20.4138 3.59783 20.4918 3.65941C20.5698 3.72099 20.6605 3.76291 20.7567 3.78188C20.8529 3.80084 20.952 3.79634 21.0462 3.76872C21.0662 3.76182 21.0859 3.75398 21.1052 3.74523C21.2417 3.68765 21.3544 3.58181 21.4234 3.44629C21.4722 3.34977 21.4972 3.24209 21.4962 3.13299L21.4936 3.12384C21.4973 2.45026 21.8119 1.84455 22.2768 1.53516C22.7454 1.22186 23.283 1.22186 23.7505 1.53516C24.2178 1.84715 24.5336 2.45547 24.5336 3.13299C24.533 3.14865 24.533 3.16432 24.5336 3.17998C24.5411 3.31143 24.5865 3.43746 24.664 3.54158C24.7443 3.65021 24.8554 3.72972 24.9816 3.76881C25.1078 3.80791 25.2426 3.80461 25.3668 3.75938C25.4912 3.71415 25.5985 3.6293 25.6739 3.51686C25.7492 3.40442 25.7888 3.27011 25.7866 3.13299C25.7866 2.45547 26.1049 1.84715 26.5724 1.53516C27.0397 1.22186 27.576 1.22186 28.0435 1.53516C28.5071 1.84324 28.8204 2.44373 28.8267 3.11341L28.8241 3.13299C28.8238 3.30584 28.8883 3.472 29.004 3.59592C29.1197 3.71985 29.2773 3.7917 29.4431 3.79614C29.5264 3.797 29.6091 3.78057 29.6862 3.74783L29.6913 3.74523C29.8071 3.69473 29.9061 3.60968 29.9757 3.50073C30.0452 3.39179 30.0823 3.26383 30.0822 3.13299L30.0798 3.11341C30.0859 2.44373 30.4005 1.84324 30.8629 1.53386C31.3303 1.22316 31.8653 1.22316 32.334 1.53386C32.7965 1.84324 33.1096 2.44242 33.1172 3.11079C33.1046 5.07935 32.3402 6.97089 30.9631 8.45514L19.3584 8.45514C17.9825 6.97089 17.2168 5.07935 17.2056 3.11079C17.2118 2.44242 17.5264 1.84324 17.9888 1.53516C18.2219 1.37851 18.4712 1.30019 18.7231 1.30019L18.7206 1.30019ZM20.1478 9.75925L30.2551 9.75925L30.2551 11.4354L20.1478 11.4354L20.1478 9.75925ZM19.8758 12.7408L30.4443 12.7408C40.5254 21.4975 43.1343 29.4527 43.1343 35.3845L43.1343 36.0672C43.1343 38.6088 41.4088 40.9886 38.4152 42.7757C35.4216 44.5615 31.2126 45.6946 26.5385 45.6946L23.7818 45.6946C19.1077 45.6946 14.8974 44.5615 11.905 42.7757C8.91143 40.9886 7.18595 38.6088 7.18595 36.0672L7.18595 35.3845C7.18595 29.4527 9.79485 21.4975 19.8758 12.7408Z" fill="#1D1D1D"/>
<path d="M25.1603 38.4546C30.4698 38.4546 34.7739 34.1504 34.7739 28.8409C34.7739 23.5314 30.4698 19.2273 25.1603 19.2273C19.8508 19.2273 15.5466 23.5314 15.5466 28.8409C15.5466 34.1504 19.8508 38.4546 25.1603 38.4546Z" fill="#1D1D1D"/>
<path d="M22.1497 31.0859L22.1497 32L19.1223 32L19.1223 31.0859L22.1497 31.0859ZM19.5051 26.3125L19.5051 32L18.3333 32L18.3333 26.3125L19.5051 26.3125ZM21.7551 28.6289L21.7551 29.5195L19.1223 29.5195L19.1223 28.6289L21.7551 28.6289ZM22.1458 26.3125L22.1458 27.2305L19.1223 27.2305L19.1223 26.3125L22.1458 26.3125ZM27.3411 29.0273L27.3411 31.2812C27.2525 31.388 27.1158 31.5039 26.9309 31.6289C26.746 31.7513 26.5077 31.8568 26.2161 31.9453C25.9244 32.0339 25.5715 32.0781 25.1575 32.0781C24.7903 32.0781 24.4556 32.0182 24.1536 31.8984C23.8515 31.776 23.5911 31.5977 23.3723 31.3633C23.1562 31.1289 22.9895 30.8424 22.8723 30.5039C22.7551 30.1628 22.6965 29.7734 22.6965 29.3359L22.6965 28.9805C22.6965 28.543 22.7525 28.1536 22.8645 27.8125C22.9791 27.4714 23.1418 27.1836 23.3528 26.9492C23.5637 26.7148 23.815 26.5365 24.1067 26.4141C24.3984 26.2917 24.7226 26.2305 25.0793 26.2305C25.5741 26.2305 25.9804 26.3112 26.2981 26.4727C26.6158 26.6315 26.858 26.8529 27.0247 27.1367C27.1939 27.418 27.2981 27.7409 27.3372 28.1055L26.2004 28.1055C26.1718 27.9128 26.1171 27.7448 26.0364 27.6016C25.9556 27.4583 25.8398 27.3464 25.6887 27.2656C25.5403 27.1849 25.3476 27.1445 25.1106 27.1445C24.9153 27.1445 24.7408 27.1849 24.5872 27.2656C24.4361 27.3437 24.3085 27.4596 24.2043 27.6133C24.1002 27.7669 24.0208 27.957 23.9661 28.1836C23.9114 28.4102 23.884 28.6732 23.884 28.9727L23.884 29.3359C23.884 29.6328 23.9127 29.8958 23.97 30.125C24.0273 30.3516 24.1119 30.543 24.2239 30.6992C24.3385 30.8529 24.4791 30.9687 24.6458 31.0469C24.8124 31.125 25.0064 31.1641 25.2278 31.1641C25.4127 31.1641 25.5663 31.1484 25.6887 31.1172C25.8137 31.0859 25.914 31.0482 25.9895 31.0039C26.0676 30.957 26.1275 30.9128 26.1692 30.8711L26.1692 29.8633L25.0989 29.8633L25.0989 29.0273L27.3411 29.0273ZM30.5012 29.9727L29.052 29.9727L29.052 29.0586L30.5012 29.0586C30.7252 29.0586 30.9075 29.0221 31.0481 28.9492C31.1887 28.8737 31.2916 28.7695 31.3567 28.6367C31.4218 28.5039 31.4543 28.3542 31.4543 28.1875C31.4543 28.0182 31.4218 27.8607 31.3567 27.7148C31.2916 27.569 31.1887 27.4518 31.0481 27.3633C30.9075 27.2747 30.7252 27.2305 30.5012 27.2305L29.4583 27.2305L29.4583 32L28.2864 32L28.2864 26.3125L30.5012 26.3125C30.9465 26.3125 31.328 26.3932 31.6458 26.5547C31.9661 26.7135 32.2109 26.9336 32.3801 27.2148C32.5494 27.4961 32.634 27.8177 32.634 28.1797C32.634 28.5469 32.5494 28.8646 32.3801 29.1328C32.2109 29.401 31.9661 29.6081 31.6458 29.7539C31.328 29.8997 30.9465 29.9727 30.5012 29.9727Z" fill="white"/>
</g>
</g>
<defs>
<clipPath id="clip0_1_5542">
<rect width="50" height="47" fill="white" transform="translate(0.160156)"/>
</clipPath>
<clipPath id="clip1_1_5542">
<rect width="38.4545" height="47" fill="white" transform="translate(5.93286)"/>
</clipPath>
</defs>
</svg>
