<svg width="51" height="47" viewBox="0 0 51 47" fill="none" xmlns="http://www.w3.org/2000/svg">
<g clip-path="url(#clip0_1_5552)">
<g clip-path="url(#clip1_1_5552)">
<path d="M36.3759 22.4319C42.2753 22.4319 47.0577 17.8886 47.0577 12.2842C47.0577 6.67976 42.2753 2.13647 36.3759 2.13647C30.4766 2.13647 25.6941 6.67976 25.6941 12.2842C25.6941 17.8886 30.4766 22.4319 36.3759 22.4319Z" fill="#1D1D1D"/>
<path d="M49.0798 32.0367C49.0545 31.6039 48.9292 31.1823 48.7134 30.8037C48.4974 30.4252 48.1964 30.0997 47.833 29.8517C47.4697 29.6037 47.0535 29.4397 46.616 29.3722C46.1785 29.3047 45.7309 29.3354 45.3073 29.4618L34.507 32.6774C34.4081 32.209 34.1957 31.7707 33.8879 31.3992C33.5801 31.0278 33.1856 30.7339 32.7379 30.5425L25.7006 27.5488C23.3014 26.5295 20.6113 26.3736 18.1061 27.1089L14.7907 28.0851L14.7467 27.8348C14.6946 27.5439 14.5843 27.2659 14.4224 27.0167C14.2604 26.7675 14.0499 26.5519 13.8028 26.3823C13.5557 26.2128 13.2769 26.0925 12.9824 26.0284C12.6878 25.9643 12.3831 25.9577 12.0859 26.0088L6.45632 26.9603L1.71082 27.766C1.61962 27.7815 1.53242 27.8143 1.45419 27.8627C1.37596 27.9111 1.30824 27.9741 1.25488 28.0481C1.20153 28.1221 1.16359 28.2057 1.14323 28.294C1.12288 28.3823 1.1205 28.4738 1.13625 28.5631C1.15199 28.6524 1.18554 28.7377 1.23499 28.8142C1.28443 28.8908 1.3488 28.9571 1.42441 29.0094C1.50003 29.0615 1.58542 29.0987 1.6757 29.1186C1.76598 29.1385 1.85938 29.1409 1.95058 29.1255L6.00304 28.437L8.83423 44.4261L1.71082 45.6351C1.5376 45.6645 1.38192 45.7563 1.27454 45.8926C1.16715 46.0288 1.11587 46.1995 1.13081 46.3709C1.14575 46.5424 1.22583 46.7021 1.35523 46.8186C1.48464 46.9351 1.65396 46.9998 1.82976 47C1.87025 46.9999 1.91065 46.9965 1.95058 46.99L15.4004 44.7084C16.0009 44.6059 16.5354 44.2744 16.8865 43.7867C17.2376 43.2991 17.3768 42.6949 17.2735 42.107L17.1106 41.1903L17.311 41.1444C17.7421 41.0476 18.1899 41.045 18.6222 41.1372L31.1597 43.8421C31.585 43.9324 32.019 43.9769 32.454 43.975C33.7196 43.9757 34.9536 43.5878 35.982 42.8659L47.8621 34.5337C48.2649 34.2527 48.5881 33.8762 48.8011 33.4393C49.0141 33.0025 49.11 32.5198 49.0798 32.0367ZM15.1606 43.3527L10.2184 44.1914L7.38726 28.1978L12.3294 27.359C12.5627 27.3202 12.8021 27.3735 12.9952 27.5072C13.1883 27.6409 13.3194 27.8441 13.3596 28.0722L15.8884 42.3407C15.9286 42.5693 15.8746 42.8042 15.7382 42.9939C15.6018 43.1836 15.3941 43.3126 15.1606 43.3527ZM47.0398 33.4135L35.1635 41.7549C34.6333 42.1263 34.0295 42.3845 33.3909 42.5129C32.7524 42.6413 32.0933 42.637 31.4566 42.5002L18.9227 39.7906C18.2874 39.6549 17.6291 39.6586 16.9953 39.8016L16.8735 39.83L15.0323 29.4527L18.5106 28.4278C20.6974 27.7853 23.0459 27.9208 25.1405 28.8101L32.1787 31.8038C32.5074 31.9444 32.7802 32.1862 32.9555 32.4925C33.1308 32.7988 33.1991 33.1528 33.1499 33.5005C33.1422 33.5571 33.1309 33.6131 33.1162 33.6683C33.0137 34.0762 32.7515 34.4282 32.3862 34.6486C32.0209 34.8689 31.5818 34.9399 31.1635 34.8462L27.1644 33.9635C27.0744 33.9436 26.9812 33.9413 26.8903 33.9566C26.7993 33.972 26.7123 34.0048 26.6344 34.0531C26.5564 34.1013 26.4889 34.1642 26.4357 34.238C26.3825 34.3117 26.3446 34.3951 26.3243 34.4833C26.304 34.5714 26.3016 34.6625 26.3173 34.7515C26.333 34.8405 26.3666 34.9256 26.4158 35.002C26.4652 35.0783 26.5294 35.1445 26.6048 35.1965C26.6802 35.2486 26.7653 35.2856 26.8554 35.3054L30.8535 36.1836C31.6062 36.3513 32.396 36.2325 33.0625 35.8512C33.729 35.4698 34.2223 34.8546 34.4424 34.1303L45.7081 30.7754C45.9288 30.7082 46.1623 30.6913 46.3908 30.7258C46.6192 30.7604 46.8366 30.8456 47.0263 30.9748C47.216 31.1041 47.373 31.274 47.4854 31.4717C47.5979 31.6695 47.6626 31.8896 47.6749 32.1155C47.6903 32.3669 47.6401 32.6179 47.529 32.845C47.4179 33.072 47.2496 33.2677 47.0398 33.4135ZM36.5749 24.5422C39.0473 24.5414 41.4638 23.8232 43.5194 22.4786C45.5749 21.1339 47.177 19.223 48.1233 16.9875C49.0695 14.7519 49.3175 12.292 48.8358 9.91852C48.354 7.54507 47.1643 5.36464 45.4169 3.6528C44.259 2.50168 42.8798 1.58627 41.3588 0.959357C39.8377 0.332442 38.205 0.00642143 36.5546 9.39018e-05C34.9042 -0.00623363 33.2688 0.307257 31.7428 0.922489C30.2168 1.53772 28.8303 2.44253 27.6633 3.58473C26.4964 4.72694 25.5718 6.08395 24.9433 7.57751C24.3147 9.07109 23.9944 10.6717 24.0009 12.287C24.0073 13.9023 24.3405 15.5004 24.9809 16.9891C25.6215 18.4777 26.5568 19.8277 27.7329 20.9608C28.8917 22.1003 30.2697 23.0035 31.7875 23.6182C33.3052 24.2329 34.9323 24.547 36.5749 24.5422ZM28.7266 4.62444C30.8121 2.60575 33.6294 1.47708 36.5626 1.48507C39.4957 1.49305 42.3065 2.63703 44.3806 4.66704C46.4547 6.69705 47.6235 9.44804 47.6316 12.3189C47.6398 15.1898 46.4866 17.9471 44.4241 19.9884C43.3954 21.0063 42.1714 21.8154 40.8222 22.3688C39.4731 22.9222 38.0255 23.2091 36.5626 23.2131C35.0997 23.2171 33.6505 22.938 32.2982 22.392C30.9459 21.8459 29.7172 21.0436 28.6828 20.0312C27.6484 19.0188 26.8287 17.8162 26.2708 16.4926C25.7129 15.1691 25.4276 13.7507 25.4317 12.3189C25.4358 10.8871 25.729 9.47027 26.2945 8.14978C26.8599 6.82928 27.6864 5.63121 28.7266 4.62444Z" fill="#1D1D1D"/>
<path d="M32.9597 14.0859L32.9597 15L29.9324 15L29.9324 14.0859L32.9597 14.0859ZM30.3152 9.3125L30.3152 15L29.1433 15L29.1433 9.3125L30.3152 9.3125ZM32.5652 11.6289L32.5652 12.5195L29.9324 12.5195L29.9324 11.6289L32.5652 11.6289ZM32.9558 9.3125L32.9558 10.2305L29.9324 10.2305L29.9324 9.3125L32.9558 9.3125ZM38.1511 12.0273L38.1511 14.2812C38.0626 14.388 37.9259 14.5039 37.741 14.6289C37.5561 14.7513 37.3178 14.8568 37.0261 14.9453C36.7345 15.0339 36.3816 15.0781 35.9675 15.0781C35.6003 15.0781 35.2657 15.0182 34.9636 14.8984C34.6615 14.776 34.4011 14.5977 34.1824 14.3633C33.9662 14.1289 33.7996 13.8424 33.6824 13.5039C33.5652 13.1628 33.5066 12.7734 33.5066 12.3359L33.5066 11.9805C33.5066 11.543 33.5626 11.1536 33.6746 10.8125C33.7891 10.4714 33.9519 10.1836 34.1628 9.94922C34.3738 9.71484 34.6251 9.53646 34.9167 9.41406C35.2084 9.29167 35.5326 9.23047 35.8894 9.23047C36.3842 9.23047 36.7904 9.3112 37.1082 9.47266C37.4259 9.63151 37.6681 9.85286 37.8347 10.1367C38.004 10.418 38.1082 10.7409 38.1472 11.1055L37.0105 11.1055C36.9819 10.9128 36.9272 10.7448 36.8464 10.6016C36.7657 10.4583 36.6498 10.3464 36.4988 10.2656C36.3503 10.1849 36.1576 10.1445 35.9207 10.1445C35.7253 10.1445 35.5509 10.1849 35.3972 10.2656C35.2462 10.3437 35.1186 10.4596 35.0144 10.6133C34.9102 10.7669 34.8308 10.957 34.7761 11.1836C34.7214 11.4102 34.6941 11.6732 34.6941 11.9727L34.6941 12.3359C34.6941 12.6328 34.7227 12.8958 34.78 13.125C34.8373 13.3516 34.922 13.543 35.0339 13.6992C35.1485 13.8529 35.2891 13.9687 35.4558 14.0469C35.6225 14.125 35.8165 14.1641 36.0378 14.1641C36.2227 14.1641 36.3764 14.1484 36.4988 14.1172C36.6238 14.0859 36.724 14.0482 36.7996 14.0039C36.8777 13.957 36.9376 13.9128 36.9792 13.8711L36.9792 12.8633L35.9089 12.8633L35.9089 12.0273L38.1511 12.0273ZM41.3113 12.9727L39.8621 12.9727L39.8621 12.0586L41.3113 12.0586C41.5352 12.0586 41.7175 12.0221 41.8582 11.9492C41.9988 11.8737 42.1016 11.7695 42.1667 11.6367C42.2319 11.5039 42.2644 11.3542 42.2644 11.1875C42.2644 11.0182 42.2319 10.8607 42.1667 10.7148C42.1016 10.569 41.9988 10.4518 41.8582 10.3633C41.7175 10.2747 41.5352 10.2305 41.3113 10.2305L40.2683 10.2305L40.2683 15L39.0964 15L39.0964 9.3125L41.3113 9.3125C41.7566 9.3125 42.1381 9.39323 42.4558 9.55469C42.7761 9.71354 43.0209 9.93359 43.1902 10.2148C43.3595 10.4961 43.4441 10.8177 43.4441 11.1797C43.4441 11.5469 43.3595 11.8646 43.1902 12.1328C43.0209 12.401 42.7761 12.6081 42.4558 12.7539C42.1381 12.8997 41.7566 12.9727 41.3113 12.9727Z" fill="white"/>
</g>
</g>
<defs>
<clipPath id="clip0_1_5552">
<rect width="50" height="47" fill="white" transform="translate(0.160156)"/>
</clipPath>
<clipPath id="clip1_1_5552">
<rect width="48.0682" height="47" fill="white" transform="translate(1.12598)"/>
</clipPath>
</defs>
</svg>
