<svg width="51" height="47" viewBox="0 0 51 47" fill="none" xmlns="http://www.w3.org/2000/svg">
<g clip-path="url(#clip0_1_5523)">
<g clip-path="url(#clip1_1_5523)">
<path d="M25.59 21.3635C28.8347 21.3635 31.465 18.7332 31.465 15.4885C31.465 12.2438 28.8347 9.61353 25.59 9.61353C22.3453 9.61353 19.715 12.2438 19.715 15.4885C19.715 18.7332 22.3453 21.3635 25.59 21.3635Z" fill="#1D1D1D"/>
<path d="M25.6776 1.92031e-05C17.1164 0.0130071 10.2681 7.78627 10.2681 16.5953C10.2681 22.8847 13.8366 28.6156 17.4375 32.9016C13.8106 33.3627 10.6509 34.1063 8.28591 35.0966C6.94286 35.6583 5.84311 36.2915 5.03532 37.035C4.22754 37.7818 3.69226 38.6877 3.69226 39.6943C3.69226 40.9477 4.50329 42.0159 5.68089 42.8764C6.86176 43.7368 8.47732 44.4544 10.44 45.0583C14.3654 46.2662 19.6986 47 25.59 47C31.4813 47 36.8147 46.2662 40.74 45.0583C42.7027 44.4544 44.3182 43.7368 45.4991 42.8764C46.68 42.0159 47.4877 40.9477 47.4877 39.6943C47.4877 38.6877 46.9524 37.7851 46.1511 37.0416C45.3467 36.3012 44.2501 35.6648 42.9135 35.1031C40.568 34.116 37.431 33.379 33.8333 32.9146C37.4926 28.4402 41.0871 22.3067 41.0871 15.3712C41.0871 6.56216 34.1545 -0.0129687 25.6776 1.92031e-05ZM25.6776 1.62351C33.3207 1.61052 39.465 7.40637 39.465 15.3712C39.465 27.9111 26.5567 37.9637 25.6711 38.6455C25.2331 38.3143 22.3362 36.1648 18.9947 32.2717C15.4067 28.0961 11.8901 22.4431 11.8901 16.5953C11.8901 8.63048 18.1059 1.6365 25.6776 1.62351ZM25.4505 9.25391C23.9476 9.31723 22.531 9.97394 21.5107 11.0803C20.4905 12.1866 19.9498 13.6524 20.0069 15.1569C20.0702 16.6617 20.7268 18.08 21.8328 19.1013C22.9389 20.1225 24.4042 20.6633 25.9079 20.6053C27.4108 20.5411 28.8271 19.8837 29.8467 18.7767C30.8664 17.6698 31.4062 16.2036 31.3482 14.699C31.2841 13.1955 30.6276 11.7784 29.5224 10.758C28.4171 9.73751 26.9531 9.19673 25.4505 9.25391ZM25.5153 10.8709C26.0479 10.8482 26.5798 10.9311 27.0802 11.1148C27.5808 11.2984 28.0401 11.579 28.4319 11.9408C28.8238 12.3025 29.1404 12.7381 29.3636 13.2226C29.5868 13.707 29.7123 14.2309 29.7327 14.764C29.7558 15.297 29.6732 15.8293 29.4899 16.3303C29.3066 16.8311 29.0261 17.2909 28.6646 17.6829C28.3031 18.0749 27.8677 18.3915 27.3835 18.6145C26.8992 18.8374 26.3756 18.9623 25.843 18.9818C25.311 19.0049 24.7796 18.9224 24.2794 18.7391C23.7793 18.5558 23.3204 18.2753 22.929 17.9137C22.5377 17.5523 22.2216 17.1168 21.9991 16.6324C21.7765 16.1482 21.6518 15.6246 21.6322 15.0919C21.6087 14.559 21.6908 14.0266 21.8737 13.5255C22.0566 13.0243 22.3367 12.5644 22.698 12.1721C23.0591 11.7798 23.4943 11.4629 23.9784 11.2395C24.4625 11.0162 24.9827 10.891 25.5153 10.8709ZM18.7351 34.3725C22.0929 38.0481 25.1974 40.4119 25.1974 40.4119L25.6776 40.7691L26.1609 40.4119C26.1609 40.4119 29.2104 38.113 32.5421 34.3855C36.5064 34.8174 39.9192 35.6097 42.2842 36.6032C43.5104 37.1194 44.4545 37.6844 45.0481 38.2331C45.6418 38.7852 45.8657 39.2592 45.8657 39.6943C45.8657 40.2333 45.4959 40.8697 44.5421 41.5646C43.5883 42.2594 42.1155 42.9412 40.2631 43.5127C36.5583 44.6491 31.345 45.3765 25.59 45.3765C19.8349 45.3765 14.6217 44.6525 10.9169 43.5095C9.0645 42.9412 7.59168 42.2594 6.63791 41.5614C5.68414 40.8697 5.31432 40.2333 5.31432 39.6943C5.31432 39.2592 5.53492 38.7786 6.13183 38.2267C6.72875 37.6747 7.67602 37.1065 8.90554 36.5935C11.2932 35.5934 14.7384 34.8044 18.7351 34.3725Z" fill="#1D1D1D"/>
</g>
</g>
<defs>
<clipPath id="clip0_1_5523">
<rect width="50" height="47" fill="white" transform="translate(0.589966)"/>
</clipPath>
<clipPath id="clip1_1_5523">
<rect width="43.7955" height="47" fill="white" transform="translate(3.69226)"/>
</clipPath>
</defs>
</svg>
