<svg width="36" height="35" viewBox="0 0 36 35" fill="none" xmlns="http://www.w3.org/2000/svg">
<path d="M10.371 4.8423L11.2654 3.94795C11.8349 3.37843 12.7582 3.37843 13.3277 3.94795L17.0987 7.71888C17.6682 8.2884 17.6682 9.21177 17.0987 9.78128L14.4848 12.3952C14.0489 12.8311 13.9408 13.497 14.2165 14.0483C15.8101 17.2355 18.3945 19.8199 21.5817 21.4135C22.133 21.6891 22.7989 21.5811 23.2348 21.1452L25.8487 18.5313C26.4182 17.9618 27.3416 17.9618 27.9111 18.5313L31.682 22.3022C32.2515 22.8717 32.2515 23.7951 31.682 24.3646L30.7877 25.259C27.7086 28.338 22.834 28.6844 19.3505 26.0718L17.5882 24.7501C15.0456 22.8431 12.7869 20.5844 10.8799 18.0418L9.55818 16.2795C6.94552 12.7959 7.29194 7.92136 10.371 4.8423Z" fill="#1D1D1D"/>
</svg>
