<svg width="40" height="39" viewBox="0 0 40 39" fill="none" xmlns="http://www.w3.org/2000/svg">
<g clip-path="url(#clip0_1_5535)">
<path d="M20.0299 -3.92845e-09C9.35988 -1.76221e-09 0.679932 8.67995 0.679932 19.35C0.679932 22.99 1.69134 26.5236 3.60996 29.5921C2.84564 32.2698 1.46509 37.335 1.45021 37.3879C1.41498 37.5164 1.41506 37.652 1.45042 37.7805C1.48578 37.909 1.55512 38.0256 1.65115 38.118C1.84688 38.3063 2.12969 38.3732 2.38719 38.2943L10.0572 35.9351C13.0678 37.7473 16.516 38.7033 20.0299 38.7C30.6999 38.6999 39.3799 30.02 39.3799 19.35C39.3799 8.67995 30.6999 -6.09469e-09 20.0299 -3.92845e-09ZM20.0299 37.2115C16.679 37.2148 13.395 36.273 10.5551 34.4943C10.4645 34.4376 10.3628 34.4011 10.2569 34.3872C10.1509 34.3734 10.0432 34.3825 9.94113 34.4139L3.2438 36.4754C3.86259 34.2075 4.49222 31.9425 5.13266 29.6806C5.1922 29.4737 5.15871 29.2505 5.04186 29.0696C3.16197 26.1768 2.16363 22.7999 2.16839 19.35C2.16839 9.50158 10.1815 1.48846 20.0299 1.48846C29.8783 1.48846 37.8914 9.50158 37.8914 19.35C37.8914 29.1984 29.8783 37.2115 20.0299 37.2115Z" fill="#1D1D1D"/>
<path d="M32.6707 23.9092C31.2968 23.1464 30.1269 22.3813 29.2733 21.8231C28.6213 21.3974 28.1502 21.0901 27.8049 20.9167C26.8396 20.4352 26.1081 20.7753 25.8297 21.0566C25.7951 21.0911 25.7639 21.129 25.7367 21.1697C24.7342 22.6738 23.4251 24.1124 23.0418 24.1898C22.599 24.1206 20.5263 22.9425 18.4663 21.227C16.3631 19.4744 15.0399 17.7961 14.8456 16.653C16.1949 15.2643 16.6809 14.3905 16.6809 13.3962C16.6809 12.3714 14.2904 8.09285 13.858 7.66045C13.4242 7.22731 12.447 7.15959 10.9533 7.45728C10.8094 7.48641 10.6772 7.55704 10.573 7.66045C10.3922 7.8413 6.16047 12.1556 8.17138 17.3846C10.3788 23.1233 16.0446 29.7938 23.2681 30.8774C24.089 31.0002 24.8585 31.0613 25.5789 31.0613C29.8285 31.0613 32.3365 28.9231 33.0428 24.6817C33.0685 24.5303 33.0464 24.3746 32.9798 24.2362C32.9131 24.0978 32.8051 23.9836 32.6707 23.9092ZM23.4891 29.4054C15.8503 28.26 11.0389 20.6919 9.56086 16.8502C8.09473 13.0397 10.7985 9.64234 11.4773 8.87429C12.0295 8.78052 12.6107 8.74108 12.8533 8.77903C13.3602 9.48382 15.115 12.7994 15.1924 13.3962C15.1924 13.787 15.0652 14.331 13.5499 15.847C13.4807 15.916 13.4258 15.998 13.3883 16.0883C13.3509 16.1786 13.3317 16.2754 13.3319 16.3732C13.3319 20.2699 21.5511 25.676 23.0069 25.676C24.2728 25.676 25.9235 23.5483 26.8635 22.1618C26.9605 22.1712 27.0545 22.2006 27.1396 22.2481C27.4075 22.3828 27.8719 22.6857 28.4591 23.0697C29.2346 23.5766 30.2646 24.2493 31.4807 24.9467C30.9284 27.6036 29.3849 30.291 23.4891 29.4054Z" fill="#1D1D1D"/>
</g>
<defs>
<clipPath id="clip0_1_5535">
<rect width="38.7" height="38.7" fill="white" transform="translate(0.679932)"/>
</clipPath>
</defs>
</svg>
